<svg version="1.1" id="Layer_1" xmlns="http://www.w3.org/2000/svg" x="0" y="0" viewBox="0 0 224.9 35.3" xml:space="preserve"><path id="Path_265" d="M33.5 30.4l-1.5-.7c-.3-.2-.6-.3-.9-.6 2.8-3.2 4.3-7.3 4.2-11.5C35.3 7.9 27.4 0 17.7 0c-2.2 0-4.3.4-6.3 1.2v3.2c2-.9 4.1-1.4 6.3-1.4 8.1 0 14.7 6.6 14.7 14.7 0 3.4-1.2 6.8-3.4 9.4-.2-.3-.4-.6-.6-1l-.7-1.5c-.2-.4-.7-.6-1.1-.5-.3.1-.5.4-.5.7v6.3c0 .5.4.8.8.8h6.3c.5 0 .8-.4.8-.9 0-.2-.2-.4-.5-.6z" fill="#8a8a8d"/><g id="Group_105" transform="translate(5.883 5.94)"><radialGradient id="Path_266_1_" cx="14.469" cy="13.802" r="16.109" gradientTransform="matrix(1 0 0 -1 -4.417 21.56)" gradientUnits="userSpaceOnUse"><stop offset="0" stop-color="#fff"/><stop offset=".139" stop-color="#c9deea"/><stop offset=".338" stop-color="#83b2cf"/><stop offset=".517" stop-color="#4a8fba"/><stop offset=".67" stop-color="#2276aa"/><stop offset=".791" stop-color="#0967a1"/><stop offset=".864" stop-color="#00619d"/><stop offset=".967" stop-color="#00609c"/></radialGradient><path id="Path_266" d="M11.8 0C9.5 0 7.4.6 5.5 1.8v2.6c0 1.6-1.3 2.9-2.8 2.9-.6 0-1.1-.2-1.6-.5-2.7 5.9-.1 12.9 5.8 15.6 1.5.7 3.2 1.1 4.9 1.1 2.2 0 4.4-.6 6.3-1.9V19c0-1.6 1.3-2.9 2.8-2.9.6 0 1.1.2 1.6.5.7-1.5 1-3.2 1-4.8C23.5 5.2 18.3 0 11.8 0z" fill="url(#Path_266_1_)"/></g><path id="Path_267" d="M17.7 32.4C9.6 32.3 3 25.8 3 17.6c0-.3 0-.6.1-1v-.2c0-.2.1-.5.1-.7v-.2c.3-1.9 1-3.8 2-5.5.3-.6.8-1.2 1.3-1.7.2.3.4.6.6 1l.7 1.5c.2.4.7.6 1.1.4.3-.1.5-.4.5-.8V4.1c0-.5-.4-.8-.9-.8H2.2c-.5-.1-.8.3-.9.7 0 .3.2.6.5.8l1.5.7c.3.2.7.4 1 .6-1 1.2-1.9 2.4-2.5 3.8-.4.7-.7 1.5-.9 2.3-.1.1-.1.2-.1.3-.1.3-.2.6-.3 1 0 .1-.1.2-.1.2-.1.4-.2.8-.2 1.1 0 .1 0 .2-.1.3-.1.3-.1.6-.1.9 0 .1 0 .2-.1.3 0 .4.1.9.1 1.3 0 9.7 7.9 17.6 17.6 17.7 2.2 0 4.3-.4 6.3-1.2v-3.2c-1.8.9-4 1.4-6.2 1.5z" fill="#00609c"/><path d="M53.1 23.4c2 0 3.7-.8 5-2.4l2.7 2.7c-2.1 2.4-4.6 3.6-7.5 3.6-2.9 0-5.2-.9-7.1-2.7-1.9-1.8-2.8-4.1-2.8-6.9 0-2.8.9-5.1 2.8-6.9 2-1.8 4.3-2.8 7-2.8 3 0 5.6 1.2 7.7 3.5l-2.6 2.9c-1.3-1.6-3-2.4-4.9-2.4-1.6 0-2.9.5-4 1.5s-1.7 2.4-1.7 4.1c0 1.7.5 3.1 1.6 4.2 1 1.1 2.3 1.6 3.8 1.6m26-8.8c0 3-1.2 4.9-3.5 5.8l4.7 6.7h-5.1l-4.2-6h-2.9V27H64V8.5h7.1c2.9 0 4.9.5 6.2 1.5 1.2.9 1.8 2.5 1.8 4.6m-5 2.2c.5-.5.8-1.2.8-2.2 0-1-.3-1.7-.8-2.1-.5-.4-1.5-.6-2.8-.6h-3.1v5.5h3c1.4.1 2.4-.1 2.9-.6M96 8.5v3.7h-9.2V16h8.3v3.5h-8.3v3.9h9.5v3.7H82.6V8.5zm17.5 2.4c1.8 1.6 2.7 3.9 2.7 6.8s-.9 5.2-2.6 6.9c-1.7 1.7-4.4 2.5-7.9 2.5h-6.4V8.5h6.6c3.3 0 5.8.8 7.6 2.4m-3 11c1-1 1.5-2.3 1.5-4.2 0-1.8-.5-3.2-1.5-4.2s-2.6-1.5-4.7-1.5h-2.3v11.3h2.6c1.9.1 3.3-.4 4.4-1.4m24.9 2.6c-1.9 1.8-4.2 2.8-6.9 2.8-2.8 0-5.1-.9-6.9-2.8-1.9-1.8-2.8-4.1-2.8-6.9 0-2.7.9-5 2.8-6.8 1.9-1.8 4.2-2.8 6.9-2.8s5.1.9 6.9 2.8c1.9 1.8 2.8 4.1 2.8 6.8 0 2.8-.9 5-2.8 6.9m-1.4-6.9c0-1.7-.5-3.1-1.6-4.2-1.1-1.2-2.4-1.8-3.9-1.8s-2.9.6-3.9 1.8c-1.1 1.2-1.6 2.6-1.6 4.2 0 1.7.5 3.1 1.6 4.2 1.1 1.2 2.4 1.7 3.9 1.7s2.9-.6 3.9-1.7c1.1-1.1 1.6-2.5 1.6-4.2m22.9 9.5h-8.1V8.5h7.2c1.3 0 2.3.2 3.2.4.9.3 1.6.7 2.1 1.2.8 1 1.3 2 1.3 3.2 0 1.5-.5 2.5-1.4 3.2-.3.2-.5.4-.7.5-.1.1-.3.2-.7.3 1.2.2 2.1.8 2.8 1.6.7.8 1 1.8 1 2.9 0 1.3-.4 2.4-1.3 3.4-1.1 1.3-2.9 1.9-5.4 1.9m-4-11.1h2c1.2 0 2-.1 2.6-.4.6-.2.8-.8.8-1.6s-.3-1.4-.8-1.6c-.5-.3-1.4-.4-2.6-.4h-2v4zm0 7.5h2.8c1.2 0 2.1-.2 2.7-.4.6-.3.9-.9.9-1.7 0-.9-.3-1.4-.9-1.7-.6-.3-1.6-.4-3-.4H153v4.2zm27.2 3.6l-1.7-4h-7.8l-1.7 4h-4.4l8-18.6h4l8 18.6h-4.4zM174.5 14l-2.3 5.4h4.6l-2.3-5.4zm25.2-5.5h4.1v18.6h-4.1l-8.9-11.7v11.7h-4.1V8.5h3.9l9.1 11.9zm23.9 0h-5.2l-6.2 7.6V8.5h-4.1v18.6h4.1V19l6.9 8.1h5.4l-8.5-9.7z" fill="#ea4b37"/></svg>